<svg width="164" height="26" viewBox="0 0 164 26" fill="none" xmlns="http://www.w3.org/2000/svg">
<path d="M7.2 14.9C7.2 15.82 7.86 16.28 9.18 16.28C10.5133 16.28 11.18 15.8667 11.18 15.04C11.18 14.6 10.9533 14.24 10.5 13.96C10.0467 13.68 9.49333 13.4467 8.84 13.26C8.2 13.0733 7.55333 12.86 6.9 12.62C6.26 12.3667 5.71333 11.98 5.26 11.46C4.80667 10.9267 4.58 10.2667 4.58 9.48C4.58 6.13334 6.73333 4.46 11.04 4.46C12.6133 4.46 13.8 4.76 14.6 5.36C15.4133 5.94667 15.82 6.76667 15.82 7.82C15.82 8.20667 15.7667 8.58 15.66 8.94C15.5667 9.28667 15.4667 9.53334 15.36 9.68L15.2 9.92H11.66C11.9533 9.61334 12.1 9.22667 12.1 8.76C12.1 7.89334 11.5333 7.46 10.4 7.46C8.97333 7.46 8.26 7.91334 8.26 8.82C8.26 9.27334 8.48667 9.63334 8.94 9.9C9.39333 10.1667 9.94 10.38 10.58 10.54C11.2333 10.6867 11.8867 10.8733 12.54 11.1C13.1933 11.3267 13.7467 11.7067 14.2 12.24C14.6533 12.76 14.88 13.44 14.88 14.28C14.88 15.9733 14.3733 17.2333 13.36 18.06C12.3467 18.8733 10.7867 19.28 8.68 19.28C6.57333 19.28 5.13333 18.9067 4.36 18.16C3.78667 17.6 3.5 16.8267 3.5 15.84C3.5 15.4667 3.54 15.06 3.62 14.62L3.68 14.3H7.28L7.24 14.54C7.21333 14.6733 7.2 14.7933 7.2 14.9Z" fill="#00A88F"/>
<path d="M24.4888 4.6C26.2354 4.6 27.4821 5.04 28.2288 5.92C28.7754 6.58667 29.0488 7.42 29.0488 8.42C29.0488 8.78 29.0154 9.16 28.9488 9.56L28.1688 14.02C27.9021 15.5267 27.2487 16.7333 26.2087 17.64C25.1687 18.5467 23.8221 19 22.1688 19H16.3488L18.8888 4.6H24.4888ZM23.2288 7.72H21.9288L20.5088 15.88H22.4088C23.0354 15.88 23.5221 15.7133 23.8687 15.38C24.2287 15.0333 24.4754 14.4733 24.6087 13.7L25.1888 10.42C25.2421 10.1267 25.2688 9.86 25.2688 9.62C25.2688 8.35334 24.5888 7.72 23.2288 7.72Z" fill="#00A88F"/>
<path d="M38.0677 4.6C39.5877 4.6 40.6677 4.93334 41.3077 5.6C41.7877 6.10667 42.0277 6.74667 42.0277 7.52C42.0277 7.78667 42.001 8.06667 41.9477 8.36L41.7677 9.32C41.621 10.08 41.3343 10.6733 40.9077 11.1C40.4943 11.5267 40.1277 11.74 39.8077 11.74L39.7877 11.9C40.161 11.9 40.541 12.1067 40.9277 12.52C41.3143 12.9333 41.5077 13.42 41.5077 13.98C41.5077 14.2067 41.481 14.4467 41.4277 14.7L41.3077 15.32C41.0943 16.4667 40.581 17.3667 39.7677 18.02C38.9677 18.6733 37.8477 19 36.4077 19H29.7277L32.2677 4.6H38.0677ZM36.2677 13.12H34.3677L33.8877 15.88H35.7877C35.8143 15.88 35.841 15.88 35.8677 15.88C36.481 15.88 36.9677 15.74 37.3277 15.46C37.6877 15.1667 37.8677 14.8133 37.8677 14.4C37.8677 13.5467 37.3343 13.12 36.2677 13.12ZM36.8077 7.72H35.3077L34.7877 10.7H36.2677C37.5477 10.7 38.1877 10.14 38.1877 9.02C38.1877 8.63334 38.0677 8.32 37.8277 8.08C37.601 7.84 37.261 7.72 36.8077 7.72Z" fill="#00A88F"/>
<path d="M54.7969 19L54.9169 15.86H51.5769L50.5969 19H46.7769L51.9169 4.6H58.5169L58.5969 19H54.7969ZM53.9769 8.1L52.3969 13.18H55.0169L55.2369 8.1H53.9769Z" fill="#00A88F"/>
<path d="M66.9894 12.86C66.9894 12.2867 66.7094 12 66.1494 12C65.6027 12 65.1494 12.2067 64.7894 12.62L63.6694 19H60.2694L61.9694 9.38H65.1294L64.9094 10.56C65.696 9.58667 66.6894 9.1 67.8894 9.1C69.0894 9.1 69.8694 9.39334 70.2294 9.98C70.456 10.3533 70.5694 10.78 70.5694 11.26C70.5694 11.74 70.536 12.1867 70.4694 12.6L69.9294 15.68C69.916 15.76 69.9094 15.8333 69.9094 15.9C69.9094 16.26 70.1094 16.44 70.5094 16.44C70.816 16.44 71.0894 16.3733 71.3294 16.24L71.2294 18.5C70.6027 19.02 69.8894 19.28 69.0894 19.28C67.276 19.28 66.3694 18.52 66.3694 17C66.3694 16.7333 66.396 16.4467 66.4494 16.14L66.9294 13.48C66.9694 13.24 66.9894 13.0333 66.9894 12.86Z" fill="#00A88F"/>
<path d="M76.7225 16.44C77.0292 16.44 77.3025 16.3733 77.5425 16.24L77.4425 18.5C76.8158 19.02 76.1025 19.28 75.3025 19.28C74.0892 19.28 73.3025 19 72.9425 18.44C72.7025 18.0667 72.5825 17.6733 72.5825 17.26C72.5825 16.8333 72.6092 16.46 72.6625 16.14L73.8625 9.38H77.2625L76.1425 15.68C76.1292 15.76 76.1225 15.8333 76.1225 15.9C76.1225 16.26 76.3225 16.44 76.7225 16.44ZM74.2625 6.12C74.2625 5.26667 74.4492 4.64667 74.8225 4.26C75.2092 3.86 75.8025 3.66 76.6025 3.66C77.7225 3.66 78.2825 4.15334 78.2825 5.14C78.2825 5.98 78.0892 6.59334 77.7025 6.98C77.3292 7.36667 76.7358 7.56 75.9225 7.56C74.8158 7.56 74.2625 7.08 74.2625 6.12Z" fill="#00A88F"/>
<path d="M95.332 16.44C95.6387 16.44 95.912 16.3733 96.152 16.24L96.052 18.5C95.4254 19.02 94.712 19.28 93.912 19.28C92.0987 19.28 91.192 18.52 91.192 17C91.192 16.7333 91.2187 16.4467 91.272 16.14L91.692 13.68C91.732 13.44 91.752 13.2 91.752 12.96C91.752 12.32 91.3987 12 90.692 12C89.9987 12 89.452 12.2733 89.052 12.82L87.972 19H84.572L85.512 13.68C85.552 13.44 85.572 13.2 85.572 12.96C85.572 12.32 85.212 12 84.492 12C83.9187 12 83.4254 12.22 83.012 12.66L81.892 19H78.492L80.192 9.38H83.352L83.132 10.58C83.932 9.59334 84.9454 9.1 86.172 9.1C87.9054 9.1 88.892 9.67334 89.132 10.82C89.932 9.67334 90.9987 9.1 92.332 9.1C93.6787 9.1 94.552 9.4 94.952 10C95.2187 10.4133 95.352 10.8667 95.352 11.36C95.352 11.8533 95.3187 12.3 95.252 12.7L94.752 15.68C94.7387 15.76 94.732 15.8333 94.732 15.9C94.732 16.26 94.932 16.44 95.332 16.44Z" fill="#00A88F"/>
<path d="M106.707 15.92C106.707 16.2667 106.88 16.44 107.227 16.44C107.587 16.44 107.887 16.3733 108.127 16.24L108.027 18.5C107.387 19.02 106.667 19.28 105.867 19.28C104.4 19.28 103.587 18.7467 103.427 17.68C102.76 18.7467 101.78 19.28 100.487 19.28C98.3001 19.28 97.2067 18.34 97.2067 16.46C97.2067 16.14 97.2401 15.7867 97.3067 15.4L97.7267 13.06C97.94 11.86 98.4267 10.9067 99.1867 10.2C99.9601 9.48 100.96 9.12 102.187 9.12C103.427 9.12 104.267 9.40667 104.707 9.98L104.807 9.38H107.847L106.727 15.68C106.713 15.76 106.707 15.84 106.707 15.92ZM100.787 14.96C100.76 15.08 100.747 15.2467 100.747 15.46C100.747 15.6733 100.847 15.8867 101.047 16.1C101.247 16.3 101.58 16.4 102.047 16.4C102.527 16.4 102.94 16.2133 103.287 15.84L103.887 12.48C103.74 12.1467 103.393 11.98 102.847 11.98C101.82 11.98 101.22 12.4733 101.047 13.46L100.787 14.96Z" fill="#00A88F"/>
<path d="M113.638 19.28C112.091 19.28 110.978 18.9333 110.298 18.24C109.791 17.7333 109.538 17.0533 109.538 16.2C109.538 15.92 109.565 15.62 109.618 15.3L110.978 7.56L114.638 6.04L114.058 9.38H119.578L119.078 12.2H113.558L113.158 14.46C113.105 14.7133 113.078 14.94 113.078 15.14C113.078 15.98 113.478 16.4 114.278 16.4C114.705 16.4 115.058 16.22 115.338 15.86C115.631 15.5 115.831 15.02 115.938 14.42H119.258C118.698 17.66 116.825 19.28 113.638 19.28Z" fill="#00A88F"/>
<path d="M124.375 19.28C121.601 19.28 120.215 18.32 120.215 16.4C120.215 16.1333 120.241 15.8467 120.295 15.54L120.715 13.06C120.941 11.78 121.528 10.8 122.475 10.12C123.435 9.42667 124.701 9.08 126.275 9.08C128.955 9.08 130.295 10.0933 130.295 12.12C130.295 12.4133 130.268 12.7333 130.215 13.08L129.975 14.5H123.875L123.795 14.96C123.768 15.12 123.755 15.2667 123.755 15.4C123.755 16.1333 124.188 16.5 125.055 16.5C125.375 16.5 125.648 16.4 125.875 16.2C126.101 16 126.235 15.7667 126.275 15.5L129.595 15.54C129.155 18.0333 127.415 19.28 124.375 19.28ZM126.775 13.28C126.828 13.0533 126.855 12.8467 126.855 12.66C126.855 12.46 126.768 12.26 126.595 12.06C126.421 11.86 126.141 11.76 125.755 11.76C125.381 11.76 125.035 11.8867 124.715 12.14C124.408 12.3933 124.195 12.7733 124.075 13.28H126.775Z" fill="#00A88F"/>
</svg>
