<svg width="24" height="24" viewBox="0 0 24 24" fill="none" xmlns="http://www.w3.org/2000/svg">
<g clip-path="url(#clip0_205_363)">
<path d="M23.7264 22.4071L17.8692 16.5501C19.3251 14.7993 20.2022 12.5512 20.2022 10.1016C20.2022 4.53154 15.6708 0 10.1011 0C4.53117 0 -0.000244141 4.53154 -0.000244141 10.1016C-0.000244141 15.6712 4.53117 20.2024 10.1011 20.2024C12.5505 20.2024 14.7988 19.3254 16.5496 17.8695L22.4069 23.7267C22.589 23.9089 22.8279 24 23.0666 24C23.3054 24 23.5443 23.9089 23.7265 23.7267C24.0909 23.3623 24.0909 22.7715 23.7264 22.4071ZM1.86597 10.1016C1.86597 5.56057 5.56019 1.86621 10.1011 1.86621C14.6418 1.86621 18.3359 5.56057 18.3359 10.1016C18.3359 14.6422 14.6418 18.3362 10.1011 18.3362C5.56019 18.3362 1.86597 14.6422 1.86597 10.1016Z" fill="#1F212E"/>
</g>
<defs>
<clipPath id="clip0_205_363">
<rect width="24" height="24" fill="white" transform="translate(-0.000244141)"/>
</clipPath>
</defs>
</svg>
